<svg xmlns="http://www.w3.org/2000/svg" viewBox="-178.3 659.6 1000 700"><path d="M101.7 798.9c9.8 6.1 16.7 13.6 20.8 22.3 6.1 14 12.9 29.2 20.3 45.7 7.4 16.5 14.9 33.2 22.3 50.1s14.6 33.4 21.4 49.4c6.8 16 13 30.7 18.4 44 5.4 13.3 9.7 24.6 12.9 33.9 3.2 9.3 4.8 15.5 4.8 18.4 0 5-.7 9.8-2 14.6-1.3 4.8-3.7 9.2-7.2 13.1-3.5 3.9-8.4 7.1-14.6 9.4-6.3 2.3-14.4 3.5-24.3 3.5-10.5 0-19-1.4-25.6-4.2-6.6-2.8-12-6.3-16.4-10.7-4.4-4.4-8-9-10.9-13.8-2.9-4.8-5.9-9.4-9-13.8-3.1-4.4-6.6-7.9-10.5-10.7-3.9-2.8-9.3-4.2-16-4.2h-28c-8.2 0-14.6 1.4-19.5 4.2-4.8 2.8-8.7 6.3-11.8 10.7-3.1 4.4-5.9 9-8.5 13.8-2.6 4.8-6 9.4-10.1 13.8s-9.4 7.9-16 10.7c-6.6 2.8-15.4 4.2-26.5 4.2-16.3 0-28.3-3.6-35.9-10.9-7.6-7.3-11.4-15.9-11.4-25.8 0-3.8 1.5-10.4 4.6-19.9 3.1-9.5 7.2-20.8 12.5-33.9C-59 999.6-53 985.1-46.3 969c6.7-16 13.8-32.6 21.4-49.6 7.6-17.1 15.2-34.1 22.7-51.2 7.6-17.1 14.9-33.5 21.9-49.2 4.1-9 10.9-16.2 20.3-21.4 9.5-5.2 20-7.9 31.7-7.9 10.2 0 20.2 3.1 30 9.2zm353.7 1.5c7.6 6.9 11.4 15.7 11.4 26.5 0 6.1-1.5 14.1-4.6 24.1-3.1 9.9-7 21.1-11.8 33.7-4.8 12.5-10.4 26.1-16.6 40.7-6.3 14.6-12.6 29.4-19 44.6-8.7 20.7-16.3 39.3-22.5 55.8-6.3 16.5-12.7 30.5-19.2 42-6.6 11.5-13.7 20.4-21.4 26.7-7.7 6.3-17.3 9.4-28.6 9.4-11.7 0-21.4-2.5-29.1-7.7-7.7-5.1-14.7-12.8-21-23.2-6.3-10.3-12.4-23.4-18.4-39.1-6-15.7-13-34.4-21.2-56-6.1-16.3-12.4-32.3-18.8-47.9-6.4-15.6-12.2-30-17.5-43.1-5.2-13.1-9.5-24.9-12.9-35.2-3.3-10.3-5-18.4-5-24.3 0-13.4 4.5-23 13.6-28.9 9-5.8 20.3-8.7 33.7-8.7 12.2 0 21.8 1.5 28.6 4.6 6.8 3.1 12.8 7.1 17.7 12 3.5 3.5 7 8.6 10.5 15.3 3.5 6.7 6.8 14.1 9.8 22.1 3.1 8 6.1 16.1 9.2 24.3 3.1 8.2 5.9 15.7 8.5 22.5 2.6 6.9 5.2 12.4 7.7 16.6 2.5 4.2 4.7 6.3 6.8 6.3 2.3 0 4.7-2.1 7.2-6.3 2.5-4.2 5-9.7 7.7-16.4 2.6-6.7 5.3-14.1 8.1-22.1 2.8-8 5.7-16 8.7-23.8s6.3-15.1 9.6-21.6c3.3-6.6 6.8-11.6 10.3-15.1 3.2-3.2 6.3-5.9 9.4-8.1 3.1-2.2 6.4-4 10.1-5.5 3.6-1.5 7.8-2.5 12.5-3.3 4.7-.7 10.3-1.1 17.1-1.1 11.9 0 21.8 3.4 29.4 10.2zm148.5-1.5c9.8 6.1 16.7 13.6 20.8 22.3 6.1 14 12.9 29.2 20.3 45.7 7.4 16.5 14.9 33.2 22.3 50.1s14.6 33.4 21.4 49.4c6.8 16 13 30.7 18.4 44 5.4 13.3 9.7 24.6 12.9 33.9 3.2 9.3 4.8 15.5 4.8 18.4 0 5-.7 9.8-2 14.6-1.3 4.8-3.7 9.2-7.2 13.1-3.5 3.9-8.4 7.1-14.6 9.4-6.3 2.3-14.4 3.5-24.3 3.5-10.5 0-19-1.4-25.6-4.2-6.6-2.8-12-6.3-16.4-10.7-4.4-4.4-8-9-10.9-13.8-2.9-4.8-5.9-9.4-9-13.8-3.1-4.4-6.6-7.9-10.5-10.7-3.9-2.8-9.3-4.2-16-4.2h-28c-8.2 0-14.6 1.4-19.5 4.2-4.8 2.8-8.7 6.3-11.8 10.7-3.1 4.4-5.9 9-8.5 13.8-2.6 4.8-6 9.4-10.1 13.8s-9.4 7.9-16 10.7c-6.6 2.8-15.4 4.2-26.5 4.2-16.3 0-28.3-3.6-35.9-10.9-7.6-7.3-11.4-15.9-11.4-25.8 0-3.8 1.5-10.4 4.6-19.9 3.1-9.5 7.2-20.8 12.5-33.9 5.2-13.1 11.2-27.7 17.9-43.7 6.7-16 13.8-32.6 21.4-49.6 7.6-17.1 15.2-34.1 22.7-51.2 7.6-17.1 14.9-33.5 21.9-49.2 4.1-9 10.9-16.2 20.3-21.4 9.5-5.2 20-7.9 31.7-7.9 10.5-.1 20.5 3 30.3 9.1z" fill="#4B4B77"/><path fill="#E0C7C1" d="M70.7 1229.6c2.4 0 4.7-1.3 5.8-3.5 0-.1 9.5-17.6 18.9-38.3 4.7-10.4 9.5-21.5 13.1-31.8 1.8-5.2 3.3-10.1 4.4-14.6 1.1-4.6 1.8-8.8 1.8-12.6 0-14.9-5.5-28.2-14.7-37.4-7.7-7.7-18.1-12.4-29.4-12.4-11.3 0-21.7 4.7-29.4 12.4-9.1 9.1-14.7 22.4-14.7 37.4 0 3.9.7 8.1 1.8 12.6 1.9 8 5.2 17.1 8.9 26.5 11.3 28.1 27.5 58.1 27.5 58.3 1.3 2 3.5 3.4 6 3.4zm502.2 0c2.4 0 4.7-1.3 5.8-3.5 0-.1 9.5-17.6 18.9-38.3 4.7-10.4 9.5-21.5 13.1-31.8 1.8-5.2 3.3-10.1 4.4-14.6 1.1-4.6 1.8-8.8 1.8-12.6 0-14.9-5.5-28.2-14.7-37.4-7.7-7.7-18.1-12.4-29.4-12.4-11.3 0-21.7 4.7-29.4 12.4-9.1 9.1-14.7 22.4-14.7 37.4 0 3.9.7 8.1 1.8 12.6 1.9 8 5.2 17.1 8.9 26.5 11.3 28.1 27.5 58.1 27.5 58.3 1.3 2 3.5 3.4 6 3.4z"><animate attributeName="opacity" values="0.5;1;0.5" dur="2s" repeatCount="indefinite"/></path></svg>
